<?xml version="1.0" encoding="UTF-8"?>
<svg version="1.1" xmlns="http://www.w3.org/2000/svg" width="48" height="48">
<path d="M0 0 C0.69931641 -0.020625 1.39863281 -0.04125 2.11914062 -0.0625 C9.10021618 -0.11474378 14.23787733 2.42729073 19.1875 7.25 C23.61361897 12.52729569 24.64634912 17.65148742 24.6875 24.4375 C24.69370361 25.11458008 24.69990723 25.79166016 24.70629883 26.48925781 C24.54160412 33.04169721 22.02310742 38.01599175 17.6640625 42.859375 C12.4018663 47.81530581 7.17249015 48.61138805 0.0625 48.6875 C-0.61852783 48.69765137 -1.29955566 48.70780273 -2.0012207 48.71826172 C-8.79582123 48.60087113 -13.99687373 45.94214867 -18.8125 41.25 C-24.07179741 34.97929924 -24.7980396 28.05432097 -24.359375 20.140625 C-23.43701008 13.5786574 -20.84708699 9.00289537 -15.9609375 4.5703125 C-10.72085342 0.62352577 -6.34845146 0.04604498 0 0 Z " fill="#FDFCFE" transform="translate(23.8125,-0.25)"/>
<path d="M0 0 C0.66 0 1.32 0 2 0 C0.89309248 6.40593286 -0.33945169 12.71363856 -2 19 C-0.35 19 1.3 19 3 19 C2.73009294 25.70719034 1.88332406 30.49648113 -2 36 C-2.43054687 36.65484375 -2.86109375 37.3096875 -3.3046875 37.984375 C-4.46769173 39.70479546 -5.72738739 41.35899953 -7 43 C-7.66 43 -8.32 43 -9 43 C-8.58411954 36.80481527 -7.39748106 31.73310689 -5 26 C-7.31 26 -9.62 26 -12 26 C-11.56381045 15.17456847 -6.94971566 7.93582396 0 0 Z " fill="#8356C0" transform="translate(28,2)"/>
<path d="M0 0 C0.66 0 1.32 0 2 0 C1.8858134 1.93816735 1.75826577 3.87555099 1.625 5.8125 C1.55539063 6.89144531 1.48578125 7.97039063 1.4140625 9.08203125 C1 12 1 12 -1 15 C-1.66 15 -2.32 15 -3 15 C-2.5547115 9.72684667 -1.91626837 4.98229776 0 0 Z " fill="#5A92DC" transform="translate(22,30)"/>
<path d="M0 0 C0.99 0 1.98 0 3 0 C3.66 2.64 4.32 5.28 5 8 C3.02 8 1.04 8 -1 8 C-0.67 5.36 -0.34 2.72 0 0 Z " fill="#876CC9" transform="translate(17,20)"/>
<path d="M0 0 C1.32 0 2.64 0 4 0 C2.8141763 3.37503669 1.72426311 5.64722731 -1 8 C-0.67 5.36 -0.34 2.72 0 0 Z " fill="#AA76CB" transform="translate(33,21)"/>
<path d="M0 0 C1 2 1 2 0.0625 5.125 C-0.288125 6.07375 -0.63875 7.0225 -1 8 C-1.99 8 -2.98 8 -4 8 C-3.40072174 4.64404172 -2.15377564 2.62198774 0 0 Z " fill="#8E82D2" transform="translate(15,20)"/>
<path d="M0 0 C0.66 0 1.32 0 2 0 C1.67 1.98 1.34 3.96 1 6 C0.01 6 -0.98 6 -2 6 C-2.99 6.495 -2.99 6.495 -4 7 C-2.79618552 4.50638429 -1.54571278 2.31856917 0 0 Z " fill="#B36AC5" transform="translate(28,2)"/>
</svg>
